<svg width="1920" height="81" viewBox="0 0 1920 81" fill="none" xmlns="http://www.w3.org/2000/svg">
<path fill-rule="evenodd" clip-rule="evenodd" d="M0 50.7364L80 59.1924C160 67.6485 320 84.5606 480 80.3326C640 76.1045 800 50.7364 960 46.5083C1120 42.2803 1280 59.1924 1440 63.4205C1600 67.6485 1760 59.1924 1840 54.9644L1920 50.7364V0H1840C1760 0 1600 0 1440 0C1280 0 1120 0 960 0C800 0 640 0 480 0C320 0 160 0 80 0H0V50.7364Z" fill="#EBF1F4"/>
<path fill-rule="evenodd" clip-rule="evenodd" d="M0 50.7364L80 59.1924C160 67.6485 320 84.5606 480 80.3326C640 76.1045 800 50.7364 960 46.5083C1120 42.2803 1280 59.1924 1440 63.4205C1600 67.6485 1760 59.1924 1840 54.9644L1920 50.7364V0H1840C1760 0 1600 0 1440 0C1280 0 1120 0 960 0C800 0 640 0 480 0C320 0 160 0 80 0H0V50.7364Z" fill="url(#paint0_linear)"/>
<defs>
<linearGradient id="paint0_linear" x1="960" y1="0" x2="960" y2="81" gradientUnits="userSpaceOnUse">
<stop stop-color="white"/>
<stop offset="1" stop-color="white" stop-opacity="0"/>
</linearGradient>
</defs>
</svg>
